<svg width="507" height="389" viewBox="0 0 507 389" fill="none" xmlns="http://www.w3.org/2000/svg">
<g clip-path="url(#clip0)">
<path d="M394.542 52.941C369.737 52.941 359.374 59.1171 373.697 87.1746C388.021 115.232 431.51 144.136 445.022 110.557C453.897 88.5 427.591 52.941 394.542 52.941Z" fill="#F3F5FD"/>
<path d="M50.2537 389C41.6532 389.009 33.26 386.022 26.2205 380.448C19.181 374.873 13.8384 366.983 10.9225 357.855C-1.88883 317.591 -13.1759 243.006 36.9842 162.331C92.4475 73.1279 139.69 10.6151 217.733 1.17054C339.992 -13.6237 353.32 115.917 405.194 158.413C450.583 195.595 497.817 235.736 506.789 337.074C507.373 343.636 506.732 350.263 504.908 356.529C503.083 362.794 500.115 368.559 496.194 373.451C492.274 378.343 487.488 382.255 482.146 384.932C476.804 387.61 471.024 388.996 465.178 388.999L50.2537 389Z" fill="#F3F5FD"/>
<path d="M191.393 28.6216V38.2418H152.287C148.143 38.242 144.168 40.099 141.238 43.4046C138.307 46.7102 136.66 51.1936 136.659 55.8689V371.369C136.659 376.045 138.305 380.529 141.236 383.836C144.167 387.142 148.142 389 152.287 389H361.062C363.115 389.001 365.147 388.545 367.044 387.659C368.94 386.773 370.663 385.474 372.114 383.837C373.565 382.2 374.717 380.256 375.502 378.117C376.287 375.977 376.691 373.684 376.69 371.369V55.8689C376.689 51.1935 375.043 46.7099 372.112 43.4043C369.181 40.0986 365.207 38.2417 361.062 38.2418H321.955V28.6216C321.956 26.9906 321.671 25.3755 321.118 23.8685C320.565 22.3615 319.755 20.9922 318.732 19.8387C317.71 18.6853 316.497 17.7703 315.161 17.1459C313.826 16.5216 312.394 16.2003 310.948 16.2002H202.401C200.955 16.2003 199.524 16.5216 198.188 17.1459C196.852 17.7702 195.639 18.6852 194.617 19.8387C193.595 20.9922 192.784 22.3615 192.231 23.8685C191.678 25.3754 191.393 26.9906 191.393 28.6216Z" fill="#C1D8ED"/>
<path d="M151.113 60.8739L151.113 366.365C151.113 370.747 154.262 374.3 158.147 374.3H355.201C359.086 374.3 362.236 370.747 362.236 366.365V60.8739C362.236 56.4911 359.086 52.9381 355.201 52.9381H158.147C154.262 52.9381 151.113 56.4911 151.113 60.8739Z" fill="#FAFAFA"/>
<path d="M205.396 38.7749V67.1025C205.396 70.0824 207.537 72.4982 210.179 72.4982H303.171C305.812 72.4982 307.953 70.0824 307.953 67.1025V38.7749C307.953 35.7949 305.812 33.3792 303.171 33.3792L210.179 33.3792C207.537 33.3792 205.396 35.7949 205.396 38.7749Z" fill="#44BFFF"/>
<path d="M208.831 93.9572C203.35 87.5122 194.276 88.9612 188.564 95.1444L188.204 95.5496L187.816 95.1116C182.222 88.7921 173.145 87.1226 167.544 93.4337C166.212 94.9343 165.155 96.7162 164.433 98.6777C163.712 100.639 163.34 102.742 163.338 104.865C163.337 106.989 163.706 109.092 164.425 111.055C165.144 113.018 166.199 114.801 167.529 116.304L188.192 139.2C188.208 139.218 188.23 139.228 188.252 139.228C188.274 139.228 188.296 139.218 188.312 139.2L208.831 116.348C211.391 113.336 212.821 109.325 212.821 105.152C212.821 100.98 211.391 96.9684 208.831 93.9572Z" fill="#FD5D76"/>
<path d="M193.603 114.994C193.406 114.996 193.214 115.06 193.049 115.181C192.884 115.301 192.752 115.472 192.67 115.673L190.93 120.035L188.464 101.879C188.426 101.613 188.308 101.37 188.129 101.193C187.949 101.015 187.721 100.914 187.483 100.906C187.247 100.907 187.019 100.996 186.833 101.159C186.648 101.323 186.516 101.551 186.458 101.809L183.492 116.93L182.772 115.932C182.676 115.8 182.556 115.694 182.42 115.621C182.283 115.548 182.134 115.51 181.983 115.51H166.157L166.972 116.512C167.031 116.585 167.093 116.655 167.158 116.728L168.137 117.813H181.496L183.236 120.225C183.357 120.394 183.517 120.52 183.699 120.59C183.88 120.66 184.076 120.671 184.263 120.622C184.45 120.572 184.62 120.465 184.755 120.311C184.89 120.157 184.984 119.963 185.026 119.751L187.273 108.311L189.434 124.226C189.464 124.464 189.561 124.685 189.71 124.856C189.859 125.028 190.052 125.142 190.262 125.182C190.322 125.197 190.383 125.203 190.444 125.202C190.64 125.201 190.832 125.137 190.997 125.017C191.162 124.896 191.292 124.725 191.373 124.523L194.261 117.293H208.729L209.211 116.755C209.428 116.501 209.636 116.24 209.836 115.974L210.578 114.99L193.603 114.994Z" fill="white"/>
<path d="M81.7363 141.048L81.3232 141.102H68.2698C69.329 139.118 70.4731 135.228 69.9434 127.957L78.407 126.188C78.407 126.188 77.4515 137.469 81.7363 141.048Z" fill="#E98862"/>
<path opacity="0.15" d="M80.0007 138.692L72.9714 132.624L78.4923 132.56C78.6523 134.692 79.1639 136.772 80.0007 138.692Z" fill="black"/>
<path d="M65.1418 123.079C65.7281 126.897 67.5744 130.511 70.5589 131.744C73.8122 133.2 77.3318 133.736 80.811 133.306C90.0743 132.449 88.2418 108.688 83.8442 104.071C79.4467 99.455 66.5395 102.379 64.9697 110.099C64.1577 114.093 64.5846 119.446 65.1418 123.079Z" fill="#E98862"/>
<path d="M86.8997 104.893C86.6233 104.398 86.236 103.994 85.7769 103.722C81.6632 101.199 74.0402 100.326 70.3789 101.561C66.1312 102.995 60.8052 107.013 62.1695 116.753C62.2273 117.164 62.2892 117.559 62.3533 117.949C61.0118 117.69 59.633 117.853 58.3681 118.419C57.1032 118.986 56.0009 119.934 55.1819 121.161C54.3629 122.387 53.859 123.844 53.7251 125.372C53.5913 126.9 53.8328 128.44 54.4232 129.823C55.0136 131.207 55.9301 132.38 57.0723 133.215C58.2145 134.05 59.5384 134.514 60.8988 134.557C62.2593 134.599 63.6039 134.218 64.7853 133.456C65.9667 132.694 66.9393 131.579 67.5967 130.235C68.2268 130.849 68.9075 131.394 69.6294 131.862C70.1363 132.202 70.2592 131.925 70.435 131.29C71.0494 129.073 71.6532 120.303 71.1712 113.935L81.1527 113.546L82.892 107.963L84.3172 113.546H87.717C88.173 110.519 88.6433 107.09 86.8997 104.893Z" fill="#0F1011"/>
<path d="M78.3928 120.139C78.8167 120.139 79.1602 119.751 79.1602 119.273C79.1602 118.795 78.8167 118.407 78.3928 118.407C77.969 118.407 77.6254 118.795 77.6254 119.273C77.6254 119.751 77.969 120.139 78.3928 120.139Z" fill="#0F1011"/>
<path d="M84.447 119.579C84.8709 119.579 85.2144 119.192 85.2144 118.713C85.2144 118.235 84.8709 117.848 84.447 117.848C84.0232 117.848 83.6796 118.235 83.6796 118.713C83.6796 119.192 84.0232 119.579 84.447 119.579Z" fill="#0F1011"/>
<path d="M85.7769 116.868H85.7727L83.7394 116.839C83.692 116.839 83.6452 116.828 83.6016 116.807C83.5579 116.787 83.5183 116.756 83.4851 116.718C83.4518 116.68 83.4255 116.635 83.4077 116.586C83.3898 116.536 83.3808 116.483 83.3811 116.43C83.3814 116.376 83.3911 116.324 83.4095 116.274C83.4279 116.225 83.4547 116.18 83.4884 116.143C83.5221 116.105 83.5621 116.076 83.606 116.056C83.6498 116.035 83.6968 116.025 83.7442 116.026H83.7484L85.7817 116.055C85.8749 116.06 85.9629 116.105 86.0271 116.181C86.0914 116.257 86.127 116.359 86.1264 116.464C86.1257 116.569 86.089 116.67 86.0238 116.746C85.9587 116.821 85.8702 116.865 85.7769 116.868Z" fill="#0F1011"/>
<path d="M76.7361 117.705C76.6479 117.704 76.5628 117.668 76.497 117.602C76.4312 117.535 76.3891 117.444 76.3788 117.345C76.3685 117.246 76.3907 117.147 76.4411 117.065C76.4915 116.984 76.5667 116.926 76.6524 116.902L78.6566 116.358C78.7487 116.335 78.845 116.354 78.9248 116.411C79.0046 116.468 79.0616 116.557 79.0836 116.661C79.1056 116.764 79.0909 116.873 79.0425 116.964C78.9942 117.056 78.9161 117.122 78.825 117.149L76.8209 117.693C76.7931 117.701 76.7646 117.704 76.7361 117.705Z" fill="#0F1011"/>
<path d="M74.4004 121.392C74.4579 122.354 74.1773 123.304 73.6194 124.034C73.0615 124.765 72.2711 125.219 71.419 125.297C70.5669 125.376 69.7217 125.073 69.0661 124.454C68.4105 123.835 67.9971 122.95 67.9155 121.99C67.8732 121.508 67.9172 121.021 68.0451 120.559C68.1729 120.096 68.382 119.668 68.6597 119.298C68.9374 118.929 69.2782 118.627 69.6617 118.409C70.0452 118.191 70.4636 118.063 70.892 118.032C73.2108 117.948 74.2547 119.372 74.4004 121.392Z" fill="#E98862"/>
<g opacity="0.15">
<path opacity="0.15" d="M81.7994 124.076C81.736 124.076 81.6746 124.05 81.6265 124.003C81.5784 123.957 81.5468 123.892 81.5374 123.821C81.5279 123.75 81.5413 123.678 81.5751 123.618C81.609 123.557 81.6609 123.512 81.7216 123.491L83.2824 122.95L82.1908 120.207C82.1646 120.135 82.1642 120.055 82.1897 119.983C82.2152 119.911 82.2646 119.853 82.3273 119.821C82.3901 119.789 82.4614 119.786 82.5261 119.813C82.5907 119.839 82.6437 119.893 82.6738 119.963L83.8883 123.014C83.9037 123.053 83.9116 123.095 83.9116 123.137C83.9116 123.18 83.9035 123.221 83.8881 123.26C83.8726 123.299 83.85 123.333 83.8218 123.361C83.7937 123.389 83.7605 123.41 83.7246 123.422L81.8773 124.062C81.852 124.071 81.8258 124.076 81.7994 124.076Z" fill="black"/>
</g>
<path d="M78.7476 126.092C78.7476 126.092 81.5806 126.429 83.5672 125.646C83.5672 125.646 83.5514 127.752 81.3099 127.959C79.0685 128.166 78.7476 126.092 78.7476 126.092Z" fill="#F8FCFF"/>
<path d="M50.1034 283.187H101.38L91.0314 207.159L56.0597 209.867L50.1034 283.187Z" fill="#DEE8F5"/>
<path opacity="0.07" d="M50.1034 283.187H101.38L91.0314 207.159L56.0597 209.867L50.1034 283.187Z" fill="#0F1011"/>
<path d="M102.076 382.538L91.0314 381.055C91.5287 376.34 92.0906 370.674 92.1288 369.746C92.1288 369.806 92.1288 369.854 92.1288 369.892H103.251C103.248 370.266 103.248 371.411 102.076 382.538Z" fill="#E98862"/>
<path d="M57.7582 384.035L46.6359 383.994C46.6359 383.994 46.6735 371.037 46.6735 369.892H57.7958C57.7958 371.041 57.7582 384.035 57.7582 384.035Z" fill="#E98862"/>
<path d="M86.5856 378.573L106.179 378.196C105.259 351.886 105.202 324.288 104.915 297.915C101.091 269.488 99.6067 235.819 94.8866 207.596H52.7833C52.7833 207.596 46.1628 336.549 43.7694 377.86L63.2965 379.722C66.8149 339.218 72.7891 285.578 76.138 243.027C79.9832 263.743 82.0699 279.816 85.4141 300.354C86.083 326.064 86.6481 352.94 86.5856 378.573Z" fill="#262626"/>
<path d="M71.2791 388.888C71.5782 388.887 71.8738 388.816 72.1475 388.679C72.4211 388.543 72.6669 388.345 72.8695 388.096C73.0721 387.848 73.2272 387.555 73.325 387.236C73.4228 386.918 73.4612 386.579 73.4379 386.243C73.4057 385.777 73.2561 385.33 73.0067 384.957C72.7573 384.583 72.4185 384.298 72.0301 384.134L59.0843 379.242C58.8335 379.149 58.5677 379.117 58.3052 379.15C58.0426 379.183 57.7895 379.28 57.5631 379.433C55.7834 380.826 53.6544 381.539 51.4893 381.465C49.8029 381.33 48.1841 380.663 46.8174 379.54C46.6973 379.429 46.5517 379.358 46.3975 379.337C46.2433 379.316 46.0869 379.344 45.9466 379.419C45.8062 379.494 45.6878 379.613 45.605 379.761C45.5222 379.91 45.4785 380.082 45.479 380.257V387.399C45.479 387.609 45.5159 387.818 45.5875 388.012C45.6592 388.207 45.7642 388.384 45.8965 388.532C46.0288 388.681 46.1859 388.799 46.3586 388.879C46.5314 388.959 46.7164 389 46.9032 388.999L71.2791 388.888Z" fill="#C1D8ED"/>
<path d="M115.627 388.888C115.926 388.887 116.222 388.815 116.495 388.679C116.769 388.543 117.015 388.345 117.218 388.096C117.42 387.848 117.575 387.555 117.673 387.237C117.771 386.918 117.809 386.579 117.786 386.243C117.754 385.777 117.604 385.33 117.355 384.957C117.105 384.583 116.766 384.298 116.378 384.134L103.433 379.242C103.182 379.149 102.916 379.117 102.653 379.15C102.391 379.183 102.137 379.28 101.911 379.433C100.131 380.826 98.0023 381.539 95.8372 381.465C94.1509 381.33 92.5323 380.663 91.1658 379.54C91.0457 379.429 90.9001 379.358 90.7459 379.337C90.5917 379.316 90.4353 379.344 90.295 379.419C90.1546 379.495 90.0362 379.613 89.9534 379.761C89.8706 379.91 89.8269 380.082 89.8274 380.257V387.399C89.8274 387.609 89.8643 387.818 89.9359 388.012C90.0076 388.207 90.1126 388.384 90.2449 388.532C90.3772 388.681 90.5343 388.799 90.707 388.879C90.8798 388.959 91.0648 389 91.2516 388.999L115.627 388.888Z" fill="#C1D8ED"/>
<path d="M47.746 225.647L47.8625 225.374C48.0542 227.141 49.5234 232.936 48.2391 233.542C47.7507 233.772 47.0018 232.14 46.5188 230.912C45.4696 233.609 45.6296 239.704 45.8218 243.127C45.8344 243.353 45.786 243.579 45.6831 243.774C45.5802 243.969 45.4275 244.124 45.2451 244.22C45.0626 244.315 44.8588 244.346 44.6604 244.309C44.4619 244.272 44.278 244.168 44.1328 244.011C38.4329 237.843 41.4804 225.313 41.4804 225.313L42.0699 222.151L47.746 225.647Z" fill="#E98862"/>
<path d="M139.574 159.522C141.075 161.466 140.238 164.831 136.258 167.569C130.207 171.73 128.578 169.757 127.079 167.812C125.579 165.868 130.602 163.469 134.08 159.387C134.43 158.951 134.858 158.605 135.337 158.373C135.816 158.14 136.333 158.027 136.854 158.039C137.375 158.052 137.888 158.191 138.357 158.447C138.826 158.703 139.241 159.069 139.574 159.522Z" fill="#E98862"/>
<path d="M126.806 164.807C126.724 164.887 131.987 156.218 133.911 158.389C134.758 159.345 132.269 162.627 132.269 162.627" fill="#E98862"/>
<path d="M97.0157 208.911C94.797 214.665 51.1922 217.055 50.6096 206.933C50.2389 200.492 55.2704 194.869 55.2704 182.315C55.2704 169.761 45.0326 153.729 53.3743 144.318C55.7953 141.587 59.9741 139.825 65.0687 139.819C65.4505 143.171 83.4899 143.183 83.627 139.896C84.3156 139.908 84.851 139.92 85.1842 139.938C102.758 140.793 95.0354 163.355 94.8664 179.931C94.6593 199.327 99.3063 202.983 97.0157 208.911Z" fill="#F4F4F4"/>
<path d="M97.0158 208.911C94.7972 214.665 53.366 217.719 52.7834 207.596C52.4126 201.155 55.2727 194.869 55.2727 182.315C55.2727 169.761 46.0083 153.889 54.35 144.478C56.7705 141.747 60.2131 140.092 65.3082 140.086C65.6895 143.438 83.499 143.531 83.6367 140.245C84.3252 140.257 84.8602 140.269 85.1938 140.287C102.767 141.141 95.0381 163.355 94.8687 179.931C94.6595 199.327 99.3065 202.983 97.0158 208.911Z" fill="#367CFF"/>
<path d="M83.6292 139.896C83.492 143.183 81.4302 143.75 76.5416 144.115C70.0271 144.599 65.4527 143.171 65.0708 139.819H65.0872C71.5006 139.822 79.8873 139.831 83.6292 139.896Z" fill="#E98862"/>
<path d="M73.0832 173.312C75.4167 199.931 72.2818 249.22 72.2538 290.298C72.2538 290.298 56.826 293.807 43.7695 287.961C43.7695 287.961 51.6081 193.696 53.8325 172.544C53.8325 172.544 53.4809 184.116 52.2373 190.757C50.9937 197.397 49.793 226.754 49.793 226.754C49.793 226.754 47.0432 227.428 38.3746 227.428C38.3746 227.428 38.3746 194.487 40.4471 184.9C42.5196 175.314 49.7422 143.779 56.0591 141.307C61.1203 139.326 68.1878 139.819 68.1878 139.819C68.1878 139.819 72.0186 161.167 73.0832 173.312Z" fill="#DEE8F5"/>
<path d="M68.1861 139.822C68.1861 139.822 73.8204 164.289 73.8204 189.463L64.0751 154.273L67.2105 149.831L62.8146 146.324L63.6408 139.875C65.0682 139.546 68.1861 139.822 68.1861 139.822Z" fill="white"/>
<path d="M81.38 139.822C81.38 139.822 80.3938 157.313 80.3938 173.681C80.3938 190.048 82.6956 291.32 82.6956 291.32C82.6956 291.32 101.162 291.48 107.1 290.043C107.1 290.043 104.944 256.88 101.035 216.001C98.6884 191.455 96.6642 177.979 96.1976 173.681C96.1976 173.681 104.347 191.066 110.22 191.066C116.093 191.066 132.607 172.542 132.607 172.542C132.607 172.542 132.981 168.388 128.966 159.385L112.25 172.547C112.25 172.547 97.1975 144.655 92.1734 141.569C89.9807 140.222 86.975 140.033 85.1822 139.941C82.9684 139.825 81.38 139.822 81.38 139.822Z" fill="#DEE8F5"/>
<path d="M81.3799 139.822C81.3799 139.822 79.514 167.133 80.5457 188.517L86.4681 154.273L83.6266 150.299L87.1895 147.259L85.1837 139.941L81.3799 139.822Z" fill="white"/>
<path d="M78.2016 145.107C76.8551 145.119 75.5362 144.675 74.4157 143.833C72.0912 142.1 70.4165 138.566 69.702 133.888C68.9695 129.107 69.4213 121.937 69.4414 121.631L71.0261 121.761C71.0213 121.834 70.569 129.02 71.2676 133.582C71.9085 137.769 73.3385 140.878 75.2928 142.338C75.9578 142.817 76.705 143.131 77.4852 143.261C78.2655 143.39 79.0612 143.332 79.8201 143.09C81.3931 142.672 82.4858 141.923 83.0673 140.858C83.6743 139.747 83.7723 138.201 83.3592 136.262C83.1215 135.111 82.7526 134 82.2617 132.957C82.2617 132.957 82.6087 132.804 83.0334 132.56C83.2861 132.416 83.5229 132.239 83.7389 132.033C84.2362 133.257 84.6265 134.533 84.9041 135.842C85.4194 138.262 85.2568 140.264 84.42 141.799C83.6086 143.284 82.1834 144.309 80.1829 144.836C79.534 145.012 78.8691 145.103 78.2016 145.107Z" fill="#262626"/>
<path d="M104.061 173.813C86.5348 173.813 79.5235 145.157 79.2338 143.937L80.7697 143.472C80.838 143.758 87.7556 172.02 104.063 172.02C112.008 172.02 117.065 167.824 121.53 164.122C126.493 160.006 130.779 156.451 137.065 160.651L136.255 162.194C130.873 158.598 127.349 161.521 122.471 165.567C118.038 169.241 112.524 173.813 104.061 173.813Z" fill="#262626"/>
<path d="M139.017 168.04C141.154 168.04 142.886 166.086 142.886 163.676C142.886 161.265 141.154 159.311 139.017 159.311C136.881 159.311 135.149 161.265 135.149 163.676C135.149 166.086 136.881 168.04 139.017 168.04Z" fill="#262626"/>
<path d="M139.017 166.303C140.304 166.303 141.347 165.127 141.347 163.676C141.347 162.224 140.304 161.048 139.017 161.048C137.731 161.048 136.688 162.224 136.688 163.676C136.688 165.127 137.731 166.303 139.017 166.303Z" fill="white"/>
<path d="M70.2104 123.284C70.9879 123.284 71.6181 122.573 71.6181 121.696C71.6181 120.819 70.9879 120.108 70.2104 120.108C69.4329 120.108 68.8026 120.819 68.8026 121.696C68.8026 122.573 69.4329 123.284 70.2104 123.284Z" fill="#262626"/>
<path d="M201.696 211.229H174.462C171.69 211.226 169.034 209.982 167.074 207.772C165.115 205.561 164.012 202.563 164.009 199.437V168.713C164.012 165.587 165.115 162.59 167.074 160.379C169.034 158.168 171.69 156.925 174.462 156.921H201.694C204.466 156.925 207.122 158.168 209.082 160.379C211.041 162.59 212.144 165.587 212.147 168.713V199.437C212.144 202.563 211.042 205.56 209.082 207.771C207.123 209.982 204.467 211.225 201.696 211.229ZM174.462 162.896C173.095 162.898 171.784 163.512 170.817 164.602C169.851 165.693 169.307 167.171 169.306 168.713V199.437C169.307 200.979 169.851 202.458 170.817 203.548C171.784 204.639 173.095 205.252 174.462 205.254H201.694C203.061 205.252 204.372 204.639 205.338 203.548C206.305 202.458 206.849 200.979 206.85 199.437V168.713C206.849 167.171 206.305 165.693 205.338 164.602C204.372 163.512 203.061 162.898 201.694 162.896H174.462Z" fill="#DEE8F5"/>
<path d="M201.696 280.241H174.462C171.69 280.237 169.034 278.994 167.074 276.783C165.115 274.572 164.012 271.575 164.009 268.449V237.727C164.012 234.601 165.115 231.603 167.074 229.393C169.034 227.182 171.69 225.939 174.462 225.935H201.694C204.466 225.939 207.122 227.182 209.082 229.393C211.041 231.603 212.144 234.601 212.147 237.727V268.451C212.143 271.577 211.041 274.573 209.082 276.783C207.123 278.994 204.466 280.237 201.696 280.241ZM174.462 231.91C173.095 231.912 171.784 232.525 170.817 233.616C169.851 234.707 169.307 236.185 169.306 237.727V268.451C169.308 269.993 169.852 271.471 170.818 272.561C171.785 273.651 173.095 274.264 174.462 274.266H201.694C203.061 274.264 204.372 273.65 205.338 272.56C206.305 271.469 206.849 269.991 206.85 268.449V237.727C206.849 236.185 206.305 234.707 205.338 233.616C204.372 232.525 203.061 231.912 201.694 231.91H174.462Z" fill="#DEE8F5"/>
<path d="M201.696 349.255H174.462C171.69 349.252 169.034 348.008 167.074 345.797C165.115 343.586 164.012 340.589 164.009 337.463V306.741C164.012 303.615 165.115 300.617 167.074 298.407C169.034 296.196 171.69 294.952 174.462 294.949H201.694C204.466 294.952 207.122 296.196 209.082 298.407C211.041 300.617 212.144 303.615 212.147 306.741V337.465C212.143 340.591 211.041 343.587 209.082 345.797C207.123 348.008 204.467 349.251 201.696 349.255ZM174.462 300.924C173.095 300.926 171.784 301.539 170.817 302.63C169.851 303.72 169.307 305.199 169.306 306.741V337.465C169.308 339.007 169.852 340.485 170.818 341.575C171.785 342.665 173.095 343.278 174.462 343.28H201.694C203.061 343.278 204.372 342.665 205.339 341.574C206.305 340.483 206.849 339.005 206.85 337.463V306.741C206.849 305.199 206.305 303.72 205.338 302.63C204.372 301.539 203.061 300.926 201.694 300.924H174.462Z" fill="#DEE8F5"/>
<path d="M182.401 195.93C182.061 195.93 181.725 195.849 181.415 195.691C181.105 195.533 180.829 195.302 180.605 195.014L172.523 184.588C172.126 184.049 171.932 183.356 171.982 182.657C172.031 181.958 172.321 181.308 172.789 180.847C173.257 180.385 173.866 180.149 174.487 180.187C175.108 180.225 175.691 180.535 176.111 181.051L182.659 189.497L200.313 172.848C200.551 172.608 200.83 172.426 201.132 172.31C201.434 172.195 201.754 172.149 202.072 172.175C202.39 172.202 202.701 172.3 202.985 172.464C203.268 172.629 203.52 172.856 203.725 173.132C203.93 173.408 204.083 173.727 204.176 174.072C204.269 174.416 204.3 174.778 204.267 175.136C204.234 175.494 204.138 175.841 203.984 176.156C203.83 176.471 203.621 176.748 203.37 176.971L183.929 195.306C183.5 195.71 182.959 195.931 182.401 195.93Z" fill="#FD5D76"/>
<path d="M182.401 264.944C182.061 264.945 181.725 264.864 181.415 264.706C181.105 264.547 180.829 264.316 180.605 264.028L172.523 253.603C172.317 253.337 172.159 253.028 172.059 252.694C171.959 252.359 171.918 252.006 171.939 251.653C171.981 250.942 172.272 250.278 172.748 249.808C172.984 249.576 173.258 249.398 173.554 249.285C173.851 249.172 174.164 249.126 174.476 249.149C175.107 249.197 175.695 249.525 176.111 250.062L182.659 258.508L200.313 241.859C200.553 241.629 200.831 241.455 201.13 241.347C201.43 241.239 201.745 241.199 202.059 241.229C202.372 241.259 202.677 241.359 202.956 241.523C203.235 241.687 203.483 241.911 203.685 242.184C203.886 242.456 204.038 242.771 204.132 243.109C204.225 243.448 204.258 243.805 204.229 244.158C204.2 244.511 204.109 244.855 203.961 245.168C203.814 245.482 203.613 245.759 203.37 245.985L183.929 264.32C183.5 264.724 182.959 264.945 182.401 264.944Z" fill="#FD5D76"/>
<path d="M182.401 333.959C182.061 333.959 181.725 333.878 181.415 333.72C181.105 333.561 180.829 333.33 180.605 333.041L172.523 322.617C172.317 322.351 172.159 322.042 172.059 321.707C171.959 321.373 171.918 321.019 171.939 320.667C171.96 320.315 172.042 319.97 172.181 319.654C172.32 319.337 172.512 319.055 172.748 318.822C172.984 318.59 173.258 318.412 173.554 318.299C173.851 318.186 174.164 318.14 174.476 318.163C174.789 318.187 175.094 318.279 175.374 318.436C175.655 318.593 175.905 318.81 176.111 319.076L182.659 327.522L200.313 310.872C200.552 310.633 200.83 310.45 201.132 310.335C201.434 310.22 201.754 310.174 202.072 310.2C202.391 310.227 202.701 310.325 202.985 310.489C203.269 310.654 203.52 310.88 203.725 311.156C203.93 311.433 204.083 311.752 204.176 312.097C204.27 312.441 204.3 312.803 204.267 313.161C204.234 313.519 204.138 313.866 203.984 314.181C203.83 314.496 203.621 314.773 203.37 314.995L183.929 333.331C183.501 333.736 182.96 333.958 182.401 333.959Z" fill="#FD5D76"/>
<g opacity="0.62">
<path opacity="0.62" d="M226.881 180.494C225.128 180.494 223.707 182.098 223.707 184.075C223.707 186.053 225.128 187.657 226.881 187.657H346.084C347.838 187.657 349.259 186.053 349.259 184.075C349.259 182.098 347.838 180.494 346.084 180.494H226.881Z" fill="#DEE8F5"/>
<path opacity="0.62" d="M226.88 158.54C225.127 158.54 223.705 160.143 223.705 162.121C223.705 164.099 225.127 165.702 226.88 165.702H346.083C347.837 165.702 349.258 164.099 349.258 162.121C349.258 160.143 347.837 158.54 346.083 158.54H226.88Z" fill="#DEE8F5"/>
<path opacity="0.62" d="M226.88 202.449C225.127 202.449 223.705 204.052 223.705 206.03C223.705 208.008 225.127 209.611 226.88 209.611H319.602C321.355 209.611 322.776 208.008 322.776 206.03C322.776 204.052 321.355 202.449 319.602 202.449H226.88Z" fill="#DEE8F5"/>
</g>
<g opacity="0.62">
<path opacity="0.62" d="M226.881 249.508C225.128 249.508 223.707 251.111 223.707 253.089C223.707 255.067 225.128 256.671 226.881 256.671H346.084C347.838 256.671 349.259 255.067 349.259 253.089C349.259 251.111 347.838 249.508 346.084 249.508H226.881Z" fill="#DEE8F5"/>
<path opacity="0.62" d="M226.88 227.554C225.127 227.554 223.705 229.157 223.705 231.135C223.705 233.113 225.127 234.716 226.88 234.716H346.083C347.837 234.716 349.258 233.113 349.258 231.135C349.258 229.157 347.837 227.554 346.083 227.554H226.88Z" fill="#DEE8F5"/>
<path opacity="0.62" d="M226.88 271.462C225.127 271.462 223.705 273.066 223.705 275.044C223.705 277.022 225.127 278.625 226.88 278.625H319.602C321.355 278.625 322.776 277.022 322.776 275.044C322.776 273.066 321.355 271.462 319.602 271.462H226.88Z" fill="#DEE8F5"/>
</g>
<g opacity="0.62">
<path opacity="0.62" d="M226.881 318.522C225.128 318.522 223.707 320.125 223.707 322.103C223.707 324.081 225.128 325.685 226.881 325.685H346.084C347.838 325.685 349.259 324.081 349.259 322.103C349.259 320.125 347.838 318.522 346.084 318.522H226.881Z" fill="#DEE8F5"/>
<path opacity="0.62" d="M226.88 296.568C225.127 296.568 223.705 298.171 223.705 300.149C223.705 302.127 225.127 303.73 226.88 303.73H346.083C347.837 303.73 349.258 302.127 349.258 300.149C349.258 298.171 347.837 296.568 346.083 296.568H226.88Z" fill="#DEE8F5"/>
<path opacity="0.62" d="M226.88 340.476C225.127 340.476 223.705 342.08 223.705 344.058C223.705 346.036 225.127 347.639 226.88 347.639H319.602C321.355 347.639 322.776 346.036 322.776 344.058C322.776 342.08 321.355 340.476 319.602 340.476H226.88Z" fill="#DEE8F5"/>
</g>
<path d="M346.015 300.241V354.67C346.016 358.032 344.834 361.258 342.729 363.637C340.623 366.016 337.766 367.355 334.786 367.359H334.767C331.787 367.355 328.93 366.016 326.825 363.637C324.719 361.258 323.538 358.032 323.539 354.67V300.241H346.015Z" fill="#8DDBE0"/>
<path d="M346.015 232.041H323.541C323.126 232.041 322.729 232.227 322.436 232.557C322.143 232.888 321.978 233.336 321.978 233.804C321.978 234.271 322.143 234.72 322.436 235.05C322.729 235.381 323.126 235.567 323.541 235.567V300.241H346.014V235.564C346.428 235.564 346.826 235.378 347.119 235.047C347.412 234.717 347.577 234.268 347.577 233.801C347.577 233.333 347.412 232.885 347.119 232.554C346.826 232.224 346.428 232.038 346.014 232.038L346.015 232.041Z" fill="#DEE8F5"/>
<path d="M392.211 284.224V354.672C392.213 358.035 391.031 361.26 388.926 363.639C386.82 366.018 383.963 367.357 380.983 367.361H380.966C377.986 367.357 375.129 366.018 373.024 363.639C370.918 361.26 369.736 358.035 369.738 354.672V284.224H392.211Z" fill="#262626"/>
<path d="M392.211 232.041H369.738C369.324 232.041 368.926 232.227 368.633 232.557C368.34 232.888 368.176 233.336 368.176 233.804C368.176 234.271 368.34 234.72 368.633 235.05C368.926 235.381 369.324 235.567 369.738 235.567V284.227H392.212V235.564C392.626 235.564 393.024 235.378 393.317 235.047C393.61 234.717 393.774 234.268 393.774 233.801C393.774 233.333 393.61 232.885 393.317 232.554C393.024 232.224 392.626 232.038 392.212 232.038L392.211 232.041Z" fill="#DEE8F5"/>
<path d="M438.408 292.232V354.67C438.409 358.032 437.227 361.257 435.122 363.637C433.016 366.016 430.16 367.355 427.179 367.359H427.16C424.18 367.355 421.324 366.016 419.218 363.637C417.112 361.257 415.931 358.032 415.932 354.67V292.232H438.408Z" fill="#44BFFF"/>
<path d="M438.408 232.041H415.934C415.52 232.041 415.122 232.227 414.829 232.557C414.536 232.888 414.372 233.336 414.372 233.804C414.372 234.271 414.536 234.72 414.829 235.05C415.122 235.381 415.52 235.567 415.934 235.567V292.235H438.408V235.564C438.822 235.564 439.219 235.378 439.512 235.047C439.805 234.717 439.97 234.268 439.97 233.801C439.97 233.333 439.805 232.885 439.512 232.554C439.219 232.224 438.822 232.038 438.408 232.038L438.408 232.041Z" fill="#DEE8F5"/>
<path d="M466.011 382.994H462.145V260.642C462.145 259.845 461.864 259.081 461.365 258.518C460.866 257.955 460.189 257.639 459.483 257.639H302.465C301.759 257.639 301.082 257.955 300.583 258.518C300.084 259.082 299.803 259.845 299.803 260.642V382.994H295.937C295.231 382.994 294.554 383.31 294.055 383.873C293.556 384.436 293.275 385.2 293.275 385.997C293.275 386.793 293.556 387.557 294.055 388.12C294.554 388.683 295.231 389 295.937 389H308.992C309.698 389 310.375 388.683 310.874 388.12C311.374 387.557 311.654 386.793 311.654 385.997C311.654 385.2 311.374 384.436 310.874 383.873C310.375 383.31 309.698 382.994 308.992 382.994H305.126V263.646H456.822V382.994H452.956C452.25 382.994 451.573 383.31 451.073 383.873C450.574 384.436 450.294 385.2 450.294 385.997C450.294 386.793 450.574 387.557 451.073 388.12C451.573 388.683 452.25 389 452.956 389H466.011C466.717 389 467.394 388.683 467.893 388.12C468.392 387.557 468.673 386.793 468.673 385.997C468.673 385.2 468.392 384.436 467.893 383.873C467.394 383.31 466.717 382.994 466.011 382.994H466.011Z" fill="#9EBCEA"/>
<path d="M226.88 96.0838C225.127 96.0838 223.705 97.6872 223.705 99.6651C223.705 101.643 225.127 103.246 226.88 103.246L335.491 103.246C337.244 103.246 338.665 101.643 338.665 99.6651C338.665 97.6872 337.244 96.0838 335.491 96.0838L226.88 96.0838Z" fill="#D7E8F4"/>
<path d="M240.121 116.899C238.368 116.899 236.947 118.503 236.947 120.48C236.947 122.458 238.368 124.062 240.121 124.062H322.25C324.004 124.062 325.425 122.458 325.425 120.48C325.425 118.503 324.004 116.899 322.25 116.899H240.121Z" fill="#D7E8F4"/>
</g>
<defs>
<clipPath id="clip0">
<rect width="507" height="389" fill="white"/>
</clipPath>
</defs>
</svg>
